PathFileType	4	(X/Y/Z)	/Users/itak/Documents/Research/Walk-IL/dataset/trc/00462_00167.trc
DataRate	CameraRate	NumFrames	NumMarkers	Units	OrigDataRate	OrigDataStartFrame	OrigNumFrames
100.000000	100.000000	4	53	mm	100.000000	0	560
Frame#	Time	RPSI			LPSI			L3			STRN			T10			C7			CLAV			RBAK			LBAK			LSHO			LUPA			LAEL			LAOL			LWTS			LWPS			LFRA			LIFD			LHPS			LHTS			RSHO			RUPA			RAEL			RAOL			RWTS			RWPS			RFRA			RIFD			RHTS			RHPS			RBHD			LFHD			RFHD			LBHD			LHIP			RHIP			RASI			LASI			LKNE			LTHI			LANK			LTIP			LTOE			LMT1			LMT5			LHEE			RKNE			RTHI			RANK			RTIP			RTOE			RMT1			RMT5			RHEE			
		X1	Y1	Z1	X2	Y2	Z2	X3	Y3	Z3	X4	Y4	Z4	X5	Y5	Z5	X6	Y6	Z6	X7	Y7	Z7	X8	Y8	Z8	X9	Y9	Z9	X10	Y10	Z10	X11	Y11	Z11	X12	Y12	Z12	X13	Y13	Z13	X14	Y14	Z14	X15	Y15	Z15	X16	Y16	Z16	X17	Y17	Z17	X18	Y18	Z18	X19	Y19	Z19	X20	Y20	Z20	X21	Y21	Z21	X22	Y22	Z22	X23	Y23	Z23	X24	Y24	Z24	X25	Y25	Z25	X26	Y26	Z26	X27	Y27	Z27	X28	Y28	Z28	X29	Y29	Z29	X30	Y30	Z30	X31	Y31	Z31	X32	Y32	Z32	X33	Y33	Z33	X34	Y34	Z34	X35	Y35	Z35	X36	Y36	Z36	X37	Y37	Z37	X38	Y38	Z38	X39	Y39	Z39	X40	Y40	Z40	X41	Y41	Z41	X42	Y42	Z42	X43	Y43	Z43	X44	Y44	Z44	X45	Y45	Z45	X46	Y46	Z46	X47	Y47	Z47	X48	Y48	Z48	X49	Y49	Z49	X50	Y50	Z50	X51	Y51	Z51	X52	Y52	Z52	X53	Y53	Z53	

1	0	-1201.745849609375	966.1087036132812	-486.9107666015625	-1209.242553710938	963.949462890625	-627.7325439453125	-1192.726196289062	1046.2548828125	-544.4595947265625	-936.388671875	1259.705810546875	-578.125732421875	-1216.37939453125	1170.857299804688	-544.3967895507812	-1164.690795898438	1442.823974609375	-536.0918579101562	-978.3733520507812	1370.924682617188	-577.2667236328125	-1208.893798828125	1320.996459960938	-438.1029357910156	-1208.648681640625	1392.409790039062	-629.6419067382812	-1123.134765625	1422.151733398438	-724.8052978515625	-1141.0654296875	1300.749877929688	-820.1053466796875	-1108.347534179688	1083.487182617188	-848.850830078125	-1179.646728515625	1068.032836914062	-774.7830200195312	-1011.983032226562	887.2382202148438	-802.687255859375	-1061.51025390625	868.3582153320312	-855.1475830078125	-1081.888061523438	996.4161376953125	-856.5255737304688	-1005.897033691406	717.6118774414062	-799.1834716796875	-1050.616088867188	790.5765380859375	-854.3665161132812	-991.0182495117188	800.45263671875	-812.0215454101562	-1075.1474609375	1418.431518554688	-386.5630493164062	-1083.331298828125	1355.25390625	-310.3504943847656	-1058.276977539062	1066.685180664062	-262.0752868652344	-1114.376831054688	1048.326293945312	-294.84765625	-957.2769165039062	864.0540771484375	-336.7587585449219	-1012.145568847656	850.2291259765625	-268.1018676757812	-1047.982788085938	1007.816589355469	-257.3414611816406	-970.1432495117188	704.486328125	-334.6161193847656	-951.8448486328125	762.5909423828125	-333.6644287109375	-1008.074035644531	763.5712280273438	-280.4776611328125	-1077.73974609375	1644.778930664062	-460.0314636230469	-964.4913330078125	1669.8095703125	-631.0921020507812	-947.3682250976562	1668.348022460938	-501.5908203125	-1116.78466796875	1650.870483398438	-633.7208251953125	-1086.327026367188	860.49853515625	-752.5241088867188	-1081.147705078125	861.363525390625	-355.7032470703125	-975.5947265625	899.4188232421875	-422.8700256347656	-979.7368774414062	895.7086791992188	-682.5178833007812	-1117.76806640625	443.7803344726562	-716.9268188476562	-1080.047607421875	592.5907592773438	-741.18212890625	-1209.939086914062	40.28427886962891	-703.1455688476562	-1135.312744140625	299.6550903320312	-728.9320678710938	-968.2427978515625	44.13466262817383	-660.8148803710938	-1039.093383789062	53.51810073852539	-623.4013061523438	-1058.551635742188	42.74750137329102	-737.382080078125	-1245.068359375	48.40885925292969	-633.7222290039062	-1078.557006835938	467.7633361816406	-380.9296875	-1040.406005859375	726.8162231445312	-348.0807800292969	-1143.13818359375	44.32784271240234	-365.8631591796875	-1083.474487304688	327.4303894042969	-368.9845275878906	-941.4003295898438	47.24428558349609	-455.1832885742188	-1010.21826171875	52.5274772644043	-477.2956848144531	-1006.253662109375	48.14298629760742	-368.9646301269531	-1217.284912109375	36.7141227722168	-399.6407470703125	
2	0.01	-1201.792236328125	966.0883178710938	-487.0413513183594	-1209.234375	963.9588012695312	-627.84326171875	-1192.750854492188	1046.241577148438	-544.5755004882812	-936.489501953125	1259.725952148438	-578.1576538085938	-1216.417846679688	1170.826416015625	-544.5659790039062	-1164.784790039062	1442.820068359375	-536.2286376953125	-978.4642944335938	1370.952514648438	-577.3132934570312	-1209.0185546875	1320.9638671875	-438.2469787597656	-1208.668823242188	1392.401733398438	-629.8078002929688	-1123.15283203125	1422.146850585938	-724.924072265625	-1141.032836914062	1300.77197265625	-820.2449340820312	-1108.408813476562	1083.477294921875	-849.0051879882812	-1179.78369140625	1068.132934570312	-774.9595947265625	-1012.346313476562	887.0783081054688	-802.8406982421875	-1061.8212890625	868.269287109375	-855.3073120117188	-1082.091064453125	996.4085693359375	-856.670166015625	-1006.627624511719	717.3954467773438	-799.2664184570312	-1051.0869140625	790.597412109375	-854.5654296875	-991.3687744140625	800.3469848632812	-812.1168823242188	-1075.319702148438	1418.449462890625	-386.6612854003906	-1083.526977539062	1355.283569335938	-310.4517822265625	-1058.3671875	1066.73095703125	-262.1314697265625	-1114.47412109375	1048.369873046875	-294.8838195800781	-957.3052978515625	864.0964965820312	-336.6842346191406	-1012.211608886719	850.25634765625	-268.0593566894531	-1048.070434570312	1007.865966796875	-257.3645935058594	-970.0332641601562	704.5537719726562	-334.5615844726562	-951.7839965820312	762.6785888671875	-333.6296997070312	-1008.072082519531	763.6005859375	-280.4088745117188	-1077.882934570312	1644.831909179688	-460.1663513183594	-964.407470703125	1669.7314453125	-631.0870361328125	-947.4457397460938	1668.204956054688	-501.5368041992188	-1116.688232421875	1650.902587890625	-633.8389282226562	-1086.334106445312	860.5181884765625	-752.620849609375	-1081.216064453125	861.3712158203125	-355.7520141601562	-975.6509399414062	899.435791015625	-422.8838806152344	-979.6990356445312	895.715576171875	-682.53955078125	-1117.733642578125	443.7724304199219	-716.9601440429688	-1080.001342773438	592.583984375	-741.2113647460938	-1209.943115234375	40.2882194519043	-703.1465454101562	-1135.302001953125	299.6405029296875	-728.95947265625	-968.2529907226562	44.13623809814453	-660.818115234375	-1039.099853515625	53.51495742797852	-623.3981323242188	-1058.556396484375	42.74687576293945	-737.3763427734375	-1245.075073242188	48.40956878662109	-633.7294921875	-1078.558471679688	467.7669372558594	-380.9461975097656	-1040.372192382812	726.8033447265625	-348.2741394042969	-1143.140258789062	44.32071685791016	-365.8575744628906	-1083.490356445312	327.4457702636719	-368.9920654296875	-941.3965454101562	47.24564743041992	-455.1799011230469	-1010.222351074219	52.5212516784668	-477.2953796386719	-1006.252014160156	48.1421012878418	-368.9668273925781	-1217.28515625	36.72088241577148	-399.6468200683594	
3	0.02	-1201.855590820312	966.0652465820312	-487.2174987792969	-1209.231079101562	963.9652709960938	-627.9783935546875	-1192.77978515625	1046.2314453125	-544.7317504882812	-936.6004028320312	1259.749145507812	-578.1932373046875	-1216.471923828125	1170.78955078125	-544.7627563476562	-1164.900268554688	1442.811767578125	-536.4010620117188	-978.576171875	1370.983276367188	-577.3699951171875	-1209.170288085938	1320.925170898438	-438.4222412109375	-1208.695556640625	1392.391723632812	-630.0200805664062	-1123.15771484375	1422.143310546875	-725.0740356445312	-1140.971069335938	1300.803833007812	-820.412109375	-1108.482421875	1083.474731445312	-849.1978759765625	-1179.941284179688	1068.258911132812	-775.1831665039062	-1012.800354003906	886.8938598632812	-803.047119140625	-1062.228271484375	868.1739501953125	-855.5439453125	-1082.352416992188	996.4078369140625	-856.8804321289062	-1007.56298828125	717.1314086914062	-799.4487915039062	-1051.671997070312	790.6015625	-854.8466796875	-991.8272705078125	800.2113647460938	-812.2743530273438	-1075.532470703125	1418.46923828125	-386.7833251953125	-1083.76806640625	1355.317138671875	-310.5728759765625	-1058.485595703125	1066.786987304688	-262.1984558105469	-1114.59716796875	1048.420776367188	-294.9344787597656	-957.3335571289062	864.1505737304688	-336.591552734375	-1012.297424316406	850.295654296875	-267.9977722167969	-1048.180786132812	1007.926940917969	-257.3916015625	-969.9263916015625	704.6310424804688	-334.4786682128906	-951.7222900390625	762.77783203125	-333.5705871582031	-1008.073852539062	763.6455078125	-280.3027038574219	-1078.055786132812	1644.897583007812	-460.3278503417969	-964.2957763671875	1669.628662109375	-631.0831298828125	-947.5308837890625	1668.033325195312	-501.4737854003906	-1116.560180664062	1650.9443359375	-633.9817504882812	-1086.336791992188	860.5366821289062	-752.7461547851562	-1081.310180664062	861.3816528320312	-355.8215026855469	-975.7266235351562	899.45654296875	-422.900146484375	-979.6544189453125	895.7242431640625	-682.5650024414062	-1117.692016601562	443.7653503417969	-717.0032348632812	-1079.934204101562	592.5753784179688	-741.24755859375	-1209.949340820312	40.29270935058594	-703.1489868164062	-1135.291748046875	299.6153564453125	-729.0012817382812	-968.2642822265625	44.13886260986328	-660.8209838867188	-1039.106323242188	53.51149368286133	-623.3926391601562	-1058.561889648438	42.74667358398438	-737.3712768554688	-1245.083251953125	48.410400390625	-633.7389526367188	-1078.570190429688	467.7734680175781	-380.9709167480469	-1040.384521484375	726.8034057617188	-348.4472961425781	-1143.142700195312	44.31268310546875	-365.8506469726562	-1083.513061523438	327.4661254882812	-369.0007019042969	-941.3943481445312	47.24966430664062	-455.1746826171875	-1010.225341796875	52.51582717895508	-477.2948913574219	-1006.251098632812	48.14232635498047	-368.9688415527344	-1217.285278320312	36.72797775268555	-399.6526184082031	
4	0.03	-1201.935791015625	966.0413208007812	-487.4352111816406	-1209.235595703125	963.9658203125	-628.132080078125	-1192.812744140625	1046.22607421875	-544.9244384765625	-936.712158203125	1259.773803710938	-578.2300415039062	-1216.542358398438	1170.750244140625	-544.972900390625	-1165.030029296875	1442.798583984375	-536.601318359375	-978.7025756835938	1371.013793945312	-577.4340209960938	-1209.340454101562	1320.883178710938	-438.620361328125	-1208.728759765625	1392.380126953125	-630.2705688476562	-1123.143676757812	1422.142700195312	-725.2493896484375	-1140.875366210938	1300.845703125	-820.5970458984375	-1108.563232421875	1083.48486328125	-849.4220581054688	-1180.106201171875	1068.4052734375	-775.448486328125	-1013.321228027344	886.6990966796875	-803.3040161132812	-1062.721801757812	868.0836791992188	-855.864013671875	-1082.661499023438	996.417724609375	-857.1594848632812	-1008.662231445312	716.8318481445312	-799.7554321289062	-1052.347045898438	790.5836791992188	-855.2152709960938	-992.3805541992188	800.0516357421875	-812.5078735351562	-1075.77490234375	1418.48876953125	-386.9237670898438	-1084.042724609375	1355.351318359375	-310.7060241699219	-1058.62939453125	1066.85009765625	-262.27197265625	-1114.742065429688	1048.475341796875	-294.9985961914062	-957.357177734375	864.21533203125	-336.4851684570312	-1012.400207519531	850.3477783203125	-267.91748046875	-1048.309936523438	1007.996520996094	-257.4207458496094	-969.8403930664062	704.711669921875	-334.3656005859375	-951.6686401367188	762.87939453125	-333.4820861816406	-1008.08056640625	763.7076416015625	-280.1558837890625	-1078.24658203125	1644.972290039062	-460.5049743652344	-964.1578369140625	1669.503784179688	-631.0822143554688	-947.6141967773438	1667.843627929688	-501.40771484375	-1116.4052734375	1650.994750976562	-634.140625	-1086.32861328125	860.5494384765625	-752.895263671875	-1081.431640625	861.3945922851562	-355.9097900390625	-975.8194580078125	899.4808959960938	-422.9176635742188	-979.60595703125	895.7340087890625	-682.5922241210938	-1117.644897460938	443.7598876953125	-717.0548706054688	-1079.845703125	592.565185546875	-741.289306640625	-1209.955932617188	40.29617309570312	-703.1522216796875	-1135.28466796875	299.577880859375	-729.0592041015625	-968.2763061523438	44.14315032958984	-660.8234252929688	-1039.113159179688	53.50781631469727	-623.38525390625	-1058.567993164062	42.74700546264648	-737.3676147460938	-1245.092163085938	48.41166687011719	-633.7503662109375	-1078.596435546875	467.7832946777344	-381.0047912597656	-1040.4853515625	726.828369140625	-348.5312194824219	-1143.145263671875	44.30514907836914	-365.8433227539062	-1083.5419921875	327.4895935058594	-369.0117492675781	-941.3931884765625	47.25564193725586	-455.1676940917969	-1010.227966308594	52.51164627075195	-477.2938842773438	-1006.251098632812	48.14361572265625	-368.9701232910156	-1217.2861328125	36.73415374755859	-399.6571350097656	
